<svg width="81" height="27" viewBox="0 0 81 27" fill="none" xmlns="http://www.w3.org/2000/svg">
<g opacity="0.45">
<path d="M47.61 7.3381C47.6183 8.03427 47.4143 8.7171 47.024 9.29986C46.6337 9.88261 46.0747 10.339 45.4181 10.611C44.7614 10.883 44.0367 10.9583 43.3361 10.8274C42.6355 10.6965 41.9906 10.3653 41.4832 9.87591C40.9759 9.38648 40.6291 8.76091 40.4869 8.07867C40.3447 7.39644 40.4135 6.68835 40.6845 6.04435C40.9556 5.40036 41.4166 4.84954 42.0092 4.46188C42.6017 4.07422 43.2989 3.86722 44.0122 3.86717C44.4838 3.85814 44.9523 3.94144 45.3903 4.11216C45.8283 4.28288 46.2267 4.53756 46.5621 4.86113C46.8975 5.18471 47.1631 5.57062 47.3431 5.99606C47.5231 6.4215 47.6138 6.87784 47.61 7.3381ZM46.0354 7.3381C46.0101 6.95298 45.8701 6.58347 45.6324 6.27508C45.3947 5.96669 45.0697 5.73287 44.6976 5.60243C44.3255 5.47198 43.9224 5.45061 43.538 5.54093C43.1536 5.63125 42.8046 5.82933 42.5341 6.11077C42.2635 6.39221 42.0832 6.74473 42.0154 7.12492C41.9475 7.5051 41.9951 7.89635 42.1522 8.25049C42.3093 8.60463 42.5691 8.9062 42.8996 9.11805C43.2301 9.32991 43.6168 9.44281 44.0122 9.44284C44.2881 9.43889 44.5604 9.38078 44.8128 9.27196C45.0652 9.16314 45.2926 9.00584 45.4814 8.80943C45.6702 8.61303 45.8165 8.38153 45.9117 8.12876C46.0069 7.87598 46.0489 7.60709 46.0354 7.3381Z" fill="#1A1A2E"/>
<path d="M55.3708 7.3381C55.379 8.03427 55.175 8.7171 54.7847 9.29986C54.3944 9.88261 53.8354 10.339 53.1788 10.611C52.5222 10.883 51.7975 10.9583 51.0969 10.8274C50.3962 10.6965 49.7513 10.3653 49.244 9.87591C48.7367 9.38648 48.3899 8.76091 48.2476 8.07867C48.1054 7.39644 48.1742 6.68835 48.4453 6.04435C48.7163 5.40036 49.1774 4.84954 49.7699 4.46188C50.3624 4.07422 51.0596 3.86722 51.773 3.86717C52.2445 3.85814 52.7131 3.94144 53.151 4.11216C53.589 4.28288 53.9875 4.53756 54.3229 4.86113C54.6583 5.18471 54.9238 5.57062 55.1038 5.99606C55.2838 6.4215 55.3746 6.87784 55.3708 7.3381ZM53.7961 7.3381C53.7709 6.95298 53.6308 6.58347 53.3931 6.27508C53.1554 5.96669 52.8305 5.73287 52.4584 5.60243C52.0862 5.47198 51.6831 5.45061 51.2987 5.54093C50.9143 5.63125 50.5653 5.82933 50.2948 6.11077C50.0243 6.39221 49.844 6.74473 49.7761 7.12492C49.7083 7.5051 49.7558 7.89635 49.9129 8.25049C50.07 8.60463 50.3298 8.9062 50.6603 9.11805C50.9908 9.32991 51.3776 9.44281 51.773 9.44284C52.0491 9.43915 52.3215 9.38122 52.5742 9.27252C52.8268 9.16381 53.0544 9.00655 53.2434 8.81012C53.4324 8.61368 53.5789 8.38211 53.6742 8.1292C53.7695 7.8763 53.8117 7.60725 53.7981 7.3381H53.7961Z" fill="#1A1A2E"/>
<path d="M62.8083 4.07448V10.3087C62.8083 12.8733 61.2465 13.9204 59.4002 13.9204C58.722 13.9261 58.0575 13.7345 57.4913 13.3701C56.9251 13.0058 56.483 12.4851 56.2212 11.8744L57.5924 11.322C57.734 11.6792 57.9814 11.9871 58.303 12.2066C58.6246 12.426 59.0059 12.547 59.3982 12.5542C59.6689 12.5702 59.9399 12.527 60.1913 12.4279C60.4428 12.3288 60.6684 12.1762 60.8518 11.9812C61.0352 11.7863 61.1718 11.5538 61.2515 11.3008C61.3312 11.0479 61.3521 10.7807 61.3127 10.5188V10.0194H61.2574C61.0198 10.2765 60.7279 10.4801 60.4018 10.6163C60.0757 10.7525 59.7231 10.8179 59.3686 10.8081C58.4254 10.8081 57.5208 10.4424 56.8539 9.79147C56.187 9.14055 55.8123 8.2577 55.8123 7.33715C55.8123 6.41661 56.187 5.53376 56.8539 4.88284C57.5208 4.23191 58.4254 3.86622 59.3686 3.86622C59.7218 3.85766 60.0728 3.92242 60.3984 4.05623C60.724 4.19003 61.0168 4.38982 61.2574 4.64236H61.3127V4.07737H62.8083V4.07448ZM61.4253 7.35258C61.4475 7.08956 61.4151 6.82488 61.33 6.57437C61.245 6.32386 61.109 6.09267 60.9303 5.89464C60.7515 5.69661 60.5337 5.53581 60.2898 5.42185C60.0459 5.3079 59.781 5.24314 59.5108 5.23146C58.9678 5.27239 58.4605 5.51185 58.0905 5.90196C57.7205 6.29207 57.5149 6.8041 57.5149 7.33571C57.5149 7.86732 57.7205 8.37935 58.0905 8.76946C58.4605 9.15957 58.9678 9.39902 59.5108 9.43996C59.7786 9.43006 60.0417 9.36758 60.2842 9.25625C60.5267 9.14493 60.7437 8.98705 60.9223 8.79203C61.1009 8.59702 61.2374 8.36887 61.3237 8.12122C61.4099 7.87357 61.4442 7.6115 61.4243 7.35065L61.4253 7.35258Z" fill="#1A1A2E"/>
<path d="M65.275 0.420372V10.597H63.7389V0.420372H65.275Z" fill="#1A1A2E"/>
<path d="M71.2605 8.48065L72.4825 9.26932C72.1534 9.7471 71.7084 10.138 71.187 10.4072C70.6656 10.6763 70.084 10.8154 69.4942 10.812C69.0249 10.8201 68.5587 10.7358 68.1235 10.5643C67.6883 10.3927 67.2929 10.1373 66.961 9.81339C66.6291 9.48946 66.3675 9.10359 66.1917 8.67882C66.0159 8.25405 65.9296 7.79907 65.9379 7.34103C65.9158 6.8938 65.9869 6.44686 66.1469 6.02721C66.3068 5.60757 66.5523 5.22393 66.8685 4.8995C67.1846 4.57507 67.5649 4.31657 67.9864 4.13964C68.4078 3.96271 68.8616 3.87101 69.3203 3.87009C70.0021 3.88686 70.6621 4.10776 71.2109 4.50286C71.7598 4.89797 72.1709 5.44818 72.3886 6.07896L72.5516 6.47329L67.7575 8.39581C67.9066 8.7203 68.1517 8.99385 68.4614 9.1813C68.7711 9.36875 69.1311 9.46152 69.4952 9.44769C69.85 9.44942 70.1992 9.36121 70.5087 9.1917C70.8181 9.02219 71.0772 8.77718 71.2605 8.48065ZM67.4977 7.22726L70.7024 5.93916C70.5786 5.70298 70.3865 5.50742 70.15 5.37666C69.9135 5.24591 69.6429 5.18571 69.3717 5.20351C69.1113 5.21393 68.8557 5.27497 68.6199 5.38304C68.384 5.49112 68.1726 5.64405 67.9981 5.8329C67.8235 6.02174 67.6894 6.24268 67.6035 6.48277C67.5175 6.72287 67.4816 6.97729 67.4977 7.23111V7.22726Z" fill="#1A1A2E"/>
<path d="M34.6019 6.43353V4.96032H39.7289C39.7822 5.25372 39.8076 5.55129 39.8049 5.84926C39.8471 7.12233 39.3736 8.36033 38.4871 9.29513C37.9856 9.80015 37.3804 10.196 36.7112 10.4567C36.0419 10.7174 35.3238 10.8371 34.6038 10.8079C33.125 10.8144 31.7031 10.2524 30.6457 9.24333C29.5884 8.23428 28.9807 6.85943 28.9542 5.41636C28.9804 3.97312 29.588 2.59802 30.6454 1.58877C31.7028 0.579512 33.1249 0.0173118 34.6038 0.0238763C35.3082 0.013309 36.0077 0.139181 36.6619 0.394209C37.3161 0.649237 37.9119 1.02836 38.415 1.50963L37.3461 2.54898C36.608 1.86086 35.6225 1.48313 34.6019 1.49709C34.0752 1.49541 33.5534 1.59582 33.0668 1.79248C32.5802 1.98915 32.1385 2.27816 31.7672 2.64275C31.3959 3.00734 31.1025 3.44026 30.9041 3.91638C30.7056 4.3925 30.6059 4.90235 30.6109 5.41636C30.606 5.93028 30.7058 6.44003 30.9043 6.91604C31.1029 7.39205 31.3963 7.82485 31.7676 8.18934C32.1388 8.55383 32.5805 8.84275 33.067 9.03936C33.5536 9.23596 34.0753 9.33634 34.6019 9.33466C35.1217 9.35579 35.6403 9.27084 36.1246 9.08523C36.6088 8.89963 37.0481 8.61745 37.4143 8.25674C37.8914 7.75636 38.1819 7.11379 38.2392 6.43257L34.6019 6.43353Z" fill="#1A1A2E"/>
<path d="M33.1616 16.2806L31.581 20.5094H34.8044L33.213 16.2806H33.1616ZM30.2208 24.1722H28.8456L32.4869 14.8016H33.9006L37.5418 24.1722H36.1667L35.2371 21.6326H31.1622L30.2208 24.1722Z" fill="#1A1A2E"/>
<path d="M38.1691 17.7605H39.3664V18.6485H39.4178C39.6263 18.3157 39.926 18.0465 40.2832 17.8714C40.6558 17.6646 41.0765 17.5541 41.5052 17.5504C41.8483 17.528 42.1923 17.5766 42.5149 17.6929C42.8375 17.8092 43.1313 17.9906 43.3772 18.2253C43.8478 18.7519 44.0857 19.4389 44.039 20.1362V24.1683H42.7914V20.223C42.8168 20.0086 42.792 19.7914 42.7187 19.5878C42.6454 19.3842 42.5256 19.1995 42.3683 19.0478C42.211 18.8961 42.0205 18.7813 41.811 18.7121C41.6016 18.6429 41.3787 18.6212 41.1594 18.6485C40.9188 18.6471 40.6811 18.6997 40.4648 18.8024C40.2484 18.9051 40.0592 19.055 39.9117 19.2405C39.582 19.6276 39.4066 20.1179 39.4178 20.6212V24.1721H38.1691V17.7605Z" fill="#1A1A2E"/>
<path d="M46.3417 22.212C46.3403 22.3656 46.3765 22.5173 46.4472 22.6545C46.518 22.7917 46.6214 22.9104 46.7487 23.0007C47.0255 23.2091 47.3674 23.318 47.7168 23.3092C48.2342 23.3072 48.7304 23.1083 49.0998 22.7548C49.2954 22.5894 49.4524 22.3849 49.5601 22.1552C49.6678 21.9255 49.7238 21.6759 49.7242 21.4233C49.2465 21.1027 48.6729 20.9466 48.0942 20.9798C47.6456 20.9645 47.2039 21.0899 46.8337 21.3375C46.6832 21.4315 46.5593 21.5607 46.4734 21.7135C46.3874 21.8663 46.3422 22.0377 46.3417 22.212ZM47.946 17.5513C48.7349 17.5092 49.5101 17.7654 50.1104 18.2667C50.381 18.5176 50.5928 18.8227 50.7313 19.1611C50.8697 19.4994 50.9316 19.863 50.9126 20.2268V24.1721H49.7271V23.2841H49.6767C49.4587 23.6246 49.1544 23.9044 48.7933 24.0966C48.4322 24.2888 48.0264 24.3868 47.6151 24.3813C46.9449 24.4029 46.2907 24.1786 45.7816 23.7527C45.5493 23.5605 45.3637 23.3203 45.2382 23.0495C45.1126 22.7787 45.0502 22.4841 45.0555 22.1869C45.044 21.8821 45.1087 21.5792 45.244 21.3042C45.3793 21.0292 45.5811 20.7905 45.832 20.6086C46.435 20.1881 47.1663 19.9794 47.9065 20.0166C48.5368 19.9952 49.1626 20.1278 49.7271 20.4023V20.1314C49.7283 19.9276 49.6819 19.7262 49.5915 19.5424C49.5012 19.3587 49.3692 19.1974 49.2055 19.0708C48.8787 18.7798 48.4506 18.6213 48.0082 18.6273C47.6824 18.6184 47.3599 18.6921 47.072 18.8411C46.784 18.9902 46.5406 19.2095 46.3654 19.4777L45.2718 18.8086C45.5712 18.3943 45.9738 18.0613 46.4418 17.8413C46.9097 17.6213 47.4275 17.5215 47.946 17.5513Z" fill="#1A1A2E"/>
<path d="M53.5166 14.8016V24.1722H52.2689V14.8016H53.5166Z" fill="#1A1A2E"/>
<path d="M60.8515 17.7615L56.7005 27H55.4281L56.9692 23.7691L54.2308 17.7615H55.5803L57.556 22.3731H57.5817L59.5041 17.7615H60.8515Z" fill="#1A1A2E"/>
<path d="M64.2704 24.2715C63.7777 24.2863 63.2983 24.1134 62.9339 23.7894C62.7505 23.6158 62.607 23.4063 62.5126 23.1746C62.4183 22.943 62.3753 22.6944 62.3866 22.4454V18.8578H61.214V17.7567H62.3856V15.7966H63.6165V17.7567H65.2465V18.8539H63.6165V22.0472C63.5973 22.2023 63.61 22.3596 63.6537 22.5099C63.6975 22.6602 63.7715 22.8005 63.8713 22.9226C64.0322 23.0641 64.2406 23.143 64.4572 23.1444C64.5566 23.1457 64.6558 23.1373 64.7535 23.1193C64.8444 23.0955 64.9338 23.0665 65.0212 23.0325L65.4035 24.1056C65.0373 24.2196 64.6548 24.2756 64.2704 24.2715Z" fill="#1A1A2E"/>
<path d="M67.972 15.5536C67.9724 15.6669 67.9488 15.7791 67.9027 15.8831C67.8567 15.9872 67.7891 16.0808 67.7043 16.1581C67.6249 16.2377 67.5298 16.3007 67.4246 16.3431C67.3195 16.3856 67.2066 16.4066 67.0928 16.405C66.9769 16.4082 66.8616 16.3879 66.7541 16.3454C66.6467 16.3029 66.5494 16.2392 66.4684 16.1581C66.3865 16.0793 66.3217 15.9851 66.2779 15.8812C66.2341 15.7774 66.2122 15.6659 66.2136 15.5536C66.2111 15.4411 66.2324 15.3294 66.2763 15.2253C66.3201 15.1213 66.3855 15.0273 66.4684 14.9491C66.5498 14.8686 66.6472 14.8052 66.7545 14.7628C66.8619 14.7203 66.977 14.6998 67.0928 14.7023C67.2065 14.7013 67.3192 14.7226 67.4242 14.765C67.5293 14.8074 67.6245 14.87 67.7043 14.9491C67.7901 15.0257 67.8583 15.1192 67.9044 15.2234C67.9506 15.3276 67.9736 15.4401 67.972 15.5536ZM67.7171 17.7605V24.1721H66.4694V17.7605H67.7171Z" fill="#1A1A2E"/>
<path d="M71.9087 24.3814C71.454 24.395 71.0015 24.3154 70.5803 24.1477C70.1592 23.9799 69.7788 23.7278 69.4637 23.4076C68.8263 22.7496 68.4827 21.8715 68.5085 20.9664C68.4928 20.5179 68.5693 20.0708 68.7334 19.6516C68.8974 19.2323 69.1457 18.8493 69.4637 18.5252C69.7791 18.2054 70.1596 17.9535 70.5807 17.7858C71.0017 17.6181 71.4541 17.5382 71.9087 17.5514C72.5362 17.5383 73.1532 17.7103 73.6789 18.045C74.1826 18.3804 74.5755 18.8513 74.8101 19.4006L73.677 19.8566C73.5431 19.4884 73.2912 19.172 72.9586 18.9544C72.6261 18.7368 72.2306 18.6296 71.8307 18.6486C71.5488 18.6475 71.2702 18.7066 71.0142 18.8216C70.7583 18.9367 70.5312 19.105 70.3489 19.3148C69.9372 19.7697 69.7185 20.3606 69.7374 20.9673C69.7179 21.5741 69.9367 22.1652 70.3489 22.6199C70.5312 22.8296 70.7583 22.998 71.0142 23.113C71.2702 23.2281 71.5488 23.2872 71.8307 23.2861C72.2397 23.3084 72.6454 23.2031 72.9892 22.9856C73.3329 22.7681 73.597 22.4496 73.7432 22.0761L74.8506 22.5322C74.6281 23.0892 74.2317 23.5638 73.7175 23.8887C73.1771 24.2225 72.5481 24.3939 71.9087 24.3814Z" fill="#1A1A2E"/>
<path d="M81 22.3962C80.9988 22.6751 80.9288 22.9496 80.7959 23.1965C80.663 23.4433 80.4711 23.6553 80.2364 23.8144C79.6871 24.2063 79.0186 24.406 78.3387 24.3814C77.7138 24.3919 77.1005 24.2156 76.5813 23.8761C76.0868 23.5526 75.7072 23.0874 75.4946 22.5447L76.602 22.0886C76.7485 22.4482 76.9956 22.7602 77.3153 22.9891C77.6114 23.1986 77.9681 23.3107 78.3338 23.3092C78.6822 23.3228 79.0272 23.237 79.3266 23.0624C79.4424 23.0082 79.5412 22.9247 79.6128 22.8206C79.6844 22.7165 79.7261 22.5956 79.7336 22.4704C79.7336 22.0607 79.4056 21.7618 78.7536 21.5699L77.6255 21.2961C76.3333 20.976 75.6902 20.3715 75.6902 19.4835C75.6841 19.2077 75.7485 18.9348 75.8775 18.6894C76.0065 18.444 76.1961 18.2338 76.4291 18.0778C76.9823 17.707 77.6435 17.521 78.314 17.5475C78.8723 17.5407 79.4222 17.6813 79.9054 17.9543C80.3519 18.1967 80.7017 18.5788 80.8983 19.039L79.7909 19.4825C79.6614 19.2102 79.4413 18.9887 79.1665 18.8539C78.8787 18.6969 78.5538 18.6161 78.2241 18.6196C77.9148 18.6166 77.6107 18.6978 77.3459 18.8539C77.2354 18.9086 77.1417 18.991 77.0746 19.0927C77.0074 19.1943 76.9691 19.3115 76.9636 19.4324C76.9636 19.7959 77.3202 20.0581 78.0334 20.2211L79.0262 20.4679C80.3408 20.7861 80.9987 21.4288 81 22.3962Z" fill="#1A1A2E"/>
<path d="M17.089 3.15953V23.021C17.0543 23.4606 17.1127 23.9025 17.2605 24.3192C17.4083 24.7358 17.6423 25.1183 17.9481 25.4429C18.2539 25.7675 18.6249 26.0272 19.0379 26.2058C19.4509 26.3845 19.8972 26.4782 20.349 26.4813C20.8026 26.4842 21.2517 26.3944 21.6677 26.2178C22.0836 26.0412 22.457 25.7816 22.7641 25.4557C23.0711 25.1298 23.3048 24.7448 23.4503 24.3255C23.5958 23.9062 23.6499 23.4619 23.6089 23.021V3.30995C23.6275 2.88125 23.5569 2.45331 23.4013 2.052C23.2457 1.65069 23.0084 1.28432 22.7037 0.974988C22.3991 0.665653 22.0333 0.419771 21.6286 0.2522C21.2239 0.0846294 20.7886 -0.00115213 20.349 1.16853e-05C19.4919 0.0113364 18.6729 0.347175 18.0646 0.936649C17.4564 1.52612 17.1066 2.32314 17.089 3.15953Z" fill="#1A1A2E"/>
<path d="M8.54007 13.2407V23.02C8.50536 23.4597 8.56372 23.9016 8.71151 24.3182C8.85931 24.7349 9.09338 25.1174 9.39916 25.442C9.70494 25.7666 10.0759 26.0263 10.4889 26.2049C10.902 26.3835 11.3483 26.4773 11.8 26.4804C12.2536 26.4832 12.7028 26.3935 13.1187 26.2169C13.5346 26.0402 13.9081 25.7806 14.2151 25.4547C14.5221 25.1289 14.7559 24.7439 14.9014 24.3246C15.0469 23.9053 15.1009 23.4609 15.06 23.02V13.3911C15.0785 12.9624 15.0079 12.5345 14.8523 12.1332C14.6967 11.7319 14.4594 11.3655 14.1548 11.0561C13.8501 10.7468 13.4844 10.5009 13.0797 10.3334C12.675 10.1658 12.2397 10.08 11.8 10.0812C10.943 10.0925 10.1239 10.4283 9.51568 11.0178C8.90746 11.6073 8.55766 12.4043 8.54007 13.2407Z" fill="#1A1A2E"/>
<path d="M6.51983 23.3218C6.52433 23.952 6.33699 24.5693 5.98152 25.0955C5.62606 25.6216 5.11851 26.0329 4.52324 26.2771C3.92797 26.5213 3.27179 26.5875 2.63794 26.4672C2.00408 26.347 1.4211 26.0457 0.962908 25.6016C0.504719 25.1576 0.191962 24.5907 0.0643231 23.9729C-0.0633156 23.3551 -9.63005e-05 22.7143 0.24596 22.1316C0.492017 21.5489 0.909831 21.0507 1.44641 20.7001C1.98299 20.3495 2.61417 20.1623 3.25989 20.1623C4.12127 20.16 4.94838 20.4914 5.5596 21.0838C6.17082 21.6762 6.51617 22.4811 6.51983 23.3218Z" fill="#1A1A2E"/>
</g>
</svg>
