<svg width="1120" height="566" viewBox="0 0 1120 566" fill="none" xmlns="http://www.w3.org/2000/svg">
<g clip-path="url(#clip0_18_1395)">
<path d="M710.769 1186.08C973.211 1186.08 1185.96 973.309 1185.96 710.841C1185.96 448.373 973.211 235.601 710.769 235.601C448.328 235.601 235.577 448.373 235.577 710.841C235.577 973.309 448.328 1186.08 710.769 1186.08Z" stroke="#2F5AF5" stroke-opacity="0.1" stroke-width="4"/>
<path d="M710.769 1083.76C916.708 1083.76 1083.65 916.8 1083.65 710.841C1083.65 504.882 916.708 337.919 710.769 337.919C504.831 337.919 337.885 504.882 337.885 710.841C337.885 916.8 504.831 1083.76 710.769 1083.76Z" stroke="#2F5AF5" stroke-opacity="0.04" stroke-width="4"/>
<path d="M707.85 1121C935.963 1121 1120.88 936.057 1120.88 707.922C1120.88 479.786 935.963 294.846 707.85 294.846C479.738 294.846 294.816 479.786 294.816 707.922C294.816 936.057 479.738 1121 707.85 1121Z" stroke="white" stroke-opacity="0.5" stroke-width="2" stroke-dasharray="4 4"/>
<path d="M710.769 1415.84C1100.09 1415.84 1415.7 1100.2 1415.7 710.841C1415.7 321.479 1100.09 5.8385 710.769 5.8385C321.446 5.8385 5.83795 321.479 5.83795 710.841C5.83795 1100.2 321.446 1415.84 710.769 1415.84Z" stroke="#2F5AF5" stroke-opacity="0.9" stroke-width="4"/>
<path d="M710.769 1300.27C1036.27 1300.27 1300.14 1036.38 1300.14 710.841C1300.14 385.306 1036.27 121.408 710.769 121.408C385.267 121.408 121.396 385.306 121.396 710.841C121.396 1036.38 385.267 1300.27 710.769 1300.27Z" stroke="#2F5AF5" stroke-opacity="0.25" stroke-width="4"/>
</g>
<defs>
<clipPath id="clip0_18_1395">
<rect width="1120" height="566" fill="white"/>
</clipPath>
</defs>
</svg>
