<svg width="80" height="24" viewBox="0 0 80 24" fill="none" xmlns="http://www.w3.org/2000/svg">
<g opacity="0.45">
<path d="M49.6293 18.7693C44.9805 22.1797 38.2429 23.9996 32.4417 23.9996C24.6863 24.0381 17.1967 21.1933 11.4447 16.0241C11.0092 15.6327 11.3994 15.0988 11.9216 15.404C18.3164 19.0446 25.5592 20.9577 32.9293 20.9529C38.4351 20.9272 43.8813 19.8186 48.9538 17.691C49.7409 17.3581 50.399 18.2039 49.633 18.7723" fill="#1A1A2E"/>
<path d="M51.5597 16.5685C50.9681 15.8126 47.6355 16.2115 46.1344 16.3885C45.6816 16.444 45.6062 16.0488 46.0197 15.7646C48.6769 13.9035 53.0381 14.4404 53.5445 15.0643C54.0509 15.6881 53.4124 20.0418 50.9152 22.1174C50.5319 22.4361 50.1666 22.2674 50.3372 21.8437C50.8979 20.4505 52.1551 17.3273 51.5597 16.5685Z" fill="#1A1A2E"/>
<path d="M46.2415 2.62411V0.814697C46.2404 0.754413 46.2516 0.69454 46.2744 0.638636C46.2971 0.582732 46.3309 0.531937 46.3738 0.489269C46.4166 0.446601 46.4677 0.41293 46.5239 0.390256C46.5801 0.367583 46.6404 0.356369 46.701 0.357282H54.8386C54.9001 0.354927 54.9615 0.365073 55.019 0.3871C55.0765 0.409128 55.1288 0.442573 55.1728 0.48539C55.2168 0.528207 55.2516 0.579495 55.275 0.636117C55.2983 0.69274 55.3098 0.753505 55.3088 0.814697V2.36691C55.2059 2.79175 54.9949 3.18321 54.696 3.5037L50.4797 9.49058C52.0885 9.40081 53.692 9.74324 55.1216 10.4819C55.2493 10.5513 55.3564 10.6527 55.4321 10.7762C55.5079 10.8996 55.5497 11.0407 55.5533 11.1853V13.1162C55.5533 13.3794 55.2605 13.6883 54.9541 13.5286C53.6243 12.8479 52.1497 12.4939 50.6539 12.4963C49.158 12.4986 47.6845 12.8572 46.3569 13.5421C46.0747 13.692 45.7788 13.3921 45.7788 13.1259V11.2962C45.7526 10.861 45.8578 10.4278 46.0807 10.0522L50.9664 3.07852H46.7146C46.6533 3.08086 46.5922 3.07081 46.535 3.04896C46.4777 3.02712 46.4255 2.99394 46.3815 2.95145C46.3376 2.90895 46.3027 2.85803 46.2792 2.80176C46.2556 2.74549 46.2438 2.68505 46.2445 2.62411" fill="#1A1A2E"/>
<path d="M16.5598 13.9133H14.0837C13.9717 13.9077 13.8654 13.8623 13.7842 13.7853C13.703 13.7084 13.6524 13.605 13.6415 13.4941V0.846195C13.6425 0.785146 13.6556 0.724896 13.6802 0.668928C13.7047 0.61296 13.7402 0.562384 13.7846 0.520127C13.8289 0.47787 13.8813 0.444769 13.9386 0.422739C13.9959 0.400708 14.057 0.390186 14.1184 0.391779H16.427C16.5415 0.394664 16.6511 0.439379 16.7346 0.517388C16.8181 0.595397 16.8698 0.701236 16.8798 0.8147V2.46439H16.925C17.1275 1.76858 17.5583 1.16 18.1489 0.735408C18.7395 0.310814 19.456 0.094579 20.1844 0.12108C21.7338 0.12108 22.702 0.866441 23.3986 2.46439C23.6279 1.86371 24.0135 1.33425 24.5162 0.930101C25.0188 0.525949 25.6203 0.261575 26.2594 0.163977C26.8984 0.0663786 27.5521 0.139052 28.1537 0.374577C28.7552 0.610102 29.2831 1.00004 29.6834 1.50457C30.4668 2.56862 30.3068 4.11484 30.3068 5.46983V13.4521C30.3058 13.5133 30.2927 13.5737 30.2681 13.6298C30.2436 13.6859 30.2082 13.7367 30.1639 13.7792C30.1196 13.8217 30.0672 13.8551 30.0099 13.8774C29.9526 13.8998 29.8914 13.9107 29.8298 13.9095H27.3575C27.2388 13.9033 27.1268 13.8527 27.0441 13.7678C26.9614 13.683 26.914 13.5702 26.9115 13.4521V6.75134C26.948 5.96038 26.9248 5.16781 26.8421 4.38029C26.7938 4.04438 26.6135 3.7412 26.3406 3.53723C26.0677 3.33326 25.7245 3.24516 25.3863 3.29224C25.0647 3.30213 24.753 3.4056 24.4899 3.5898C24.2269 3.77401 24.024 4.03087 23.9064 4.32855C23.7017 5.11903 23.6253 5.93692 23.68 6.75134V13.4543C23.6791 13.5155 23.6659 13.5759 23.6414 13.6321C23.6169 13.6882 23.5815 13.739 23.5372 13.7814C23.4928 13.8239 23.4405 13.8573 23.3832 13.8797C23.3259 13.9021 23.2647 13.913 23.2031 13.9118H20.718C20.5991 13.9061 20.4868 13.8556 20.404 13.7707C20.3211 13.6857 20.2739 13.5726 20.272 13.4543V6.75134C20.272 5.34086 20.5052 3.26449 18.7468 3.26449C16.9673 3.26449 17.0367 5.28912 17.0367 6.75134V13.4543C17.0357 13.5155 17.0226 13.5759 16.9981 13.6321C16.9736 13.6882 16.9381 13.739 16.8938 13.7814C16.8495 13.8239 16.7972 13.8573 16.7399 13.8797C16.6825 13.9021 16.6213 13.913 16.5598 13.9118" fill="#1A1A2E"/>
<path d="M62.3144 0.125542C65.9881 0.125542 67.9744 3.26596 67.9744 7.25896C67.9744 11.117 65.7776 14.1772 62.3144 14.1772C58.7071 14.1772 56.7427 11.0368 56.7427 7.12399C56.7427 3.18647 58.7312 0.125542 62.3144 0.125542ZM62.3355 2.70881C60.5107 2.70881 60.396 5.18335 60.396 6.72581C60.396 8.26827 60.3719 11.5714 62.3144 11.5714C64.2328 11.5714 64.3233 8.90941 64.3233 7.28746C64.3639 6.15733 64.2396 5.02731 63.9543 3.93258C63.8784 3.56875 63.6727 3.24445 63.375 3.01953C63.0774 2.79461 62.7079 2.68425 62.3348 2.70881" fill="#1A1A2E"/>
<path d="M72.7401 13.9133H70.2746C70.1559 13.907 70.0439 13.8564 69.9612 13.7716C69.8785 13.6867 69.8311 13.5739 69.8286 13.4558V0.804948C69.842 0.689454 69.8983 0.583096 69.9866 0.506779C70.0748 0.430463 70.1886 0.389708 70.3056 0.392525H72.6005C72.7027 0.39611 72.801 0.432442 72.8807 0.496097C72.9604 0.559751 73.0173 0.647313 73.0428 0.745709V2.6796H73.088C73.7808 0.949672 74.7528 0.124825 76.4621 0.124825C77.0334 0.0982055 77.6015 0.222059 78.1091 0.483843C78.6167 0.745626 79.0456 1.13604 79.3525 1.61555C80 2.62786 80 4.32929 80 5.55306V13.5143C79.9821 13.6267 79.924 13.7289 79.8364 13.8021C79.7488 13.8754 79.6375 13.9148 79.5231 13.9133H77.0402C76.932 13.9073 76.8292 13.8643 76.7493 13.7916C76.6694 13.7188 76.6173 13.6209 76.6018 13.5143V6.64486C76.6018 5.26212 76.7617 3.2375 75.0524 3.2375C74.7406 3.25085 74.4393 3.35352 74.1849 3.53314C73.9305 3.71275 73.7339 3.96164 73.6186 4.24981C73.3131 5.01006 73.1788 5.82756 73.2253 6.64486V13.4558C73.2212 13.5799 73.1682 13.6974 73.0777 13.7829C72.9872 13.8685 72.8665 13.9153 72.7416 13.9133" fill="#1A1A2E"/>
<path d="M39.7544 7.87237V7.33847C37.9644 7.33847 36.0739 7.7194 36.0739 9.82051C36.0739 10.8846 36.6279 11.6052 37.578 11.6052C37.9384 11.5888 38.2878 11.4761 38.5892 11.2791C38.8907 11.0821 39.1331 10.808 39.2911 10.4856C39.6881 9.67464 39.8486 8.76936 39.7544 7.87237ZM42.2509 13.8787C42.171 13.9466 42.0723 13.9886 41.9678 13.9992C41.8632 14.0098 41.758 13.9884 41.666 13.938C41.0969 13.4795 40.6156 12.923 40.245 12.295C39.7563 12.8938 39.1314 13.3685 38.4218 13.6801C37.7122 13.9917 36.9383 14.1312 36.1637 14.0872C34.0816 14.0865 32.4591 12.8079 32.4591 10.2427C32.4298 9.38308 32.6676 8.53537 33.1401 7.81478C33.6127 7.09418 34.2972 6.53568 35.1004 6.21518C36.4445 5.62579 38.3213 5.52231 39.7559 5.35884V5.04389C39.8317 4.43251 39.7268 3.81243 39.4541 3.25923C39.2916 3.04908 39.0804 2.88104 38.8385 2.76941C38.5966 2.65779 38.3312 2.60587 38.0647 2.6181C37.6092 2.58275 37.1563 2.71286 36.79 2.98427C36.4237 3.25567 36.169 3.64993 36.0732 4.09382C36.0605 4.20486 36.0118 4.3088 35.9345 4.38996C35.8572 4.47112 35.7554 4.52509 35.6445 4.54374L33.2409 4.29178C33.1818 4.28344 33.1251 4.26321 33.0742 4.23236C33.0232 4.2015 32.9791 4.16065 32.9446 4.1123C32.9101 4.06396 32.8858 4.00912 32.8733 3.95115C32.8608 3.89318 32.8603 3.83329 32.8719 3.77513C33.4273 0.877671 36.0558 0.00408351 38.4096 0.00408351C39.761 -0.0473409 41.0856 0.388352 42.1392 1.23085C43.3466 2.3504 43.2289 3.84412 43.2289 5.46981V9.30985C43.2394 10.1604 43.5728 10.9757 44.1624 11.5924C44.2053 11.6359 44.2391 11.6873 44.262 11.7438C44.2849 11.8003 44.2963 11.8607 44.2957 11.9215C44.295 11.9824 44.2823 12.0425 44.2583 12.0985C44.2343 12.1545 44.1994 12.2052 44.1556 12.2478C43.6508 12.667 42.7527 13.4476 42.2577 13.884L42.2509 13.8772" fill="#1A1A2E"/>
<path d="M7.29777 7.87237V7.33847C5.50771 7.33847 3.61727 7.7194 3.61727 9.82051C3.61727 10.8846 4.17119 11.6052 5.12132 11.6052C5.48177 11.5888 5.8311 11.4761 6.13257 11.2791C6.43403 11.0821 6.67648 10.808 6.83441 10.4856C7.23145 9.67464 7.39197 8.76936 7.29777 7.87237ZM9.79421 13.8787C9.71437 13.9466 9.6156 13.9886 9.51109 13.9992C9.40658 14.0098 9.30131 13.9884 9.20934 13.938C8.64027 13.4795 8.15891 12.923 7.78831 12.295C7.29964 12.8938 6.67476 13.3685 5.96517 13.6801C5.25557 13.9917 4.4816 14.1312 3.70707 14.0872C1.62495 14.0865 0.0024198 12.8079 0.0024198 10.2427C-0.0269044 9.38308 0.210887 8.53537 0.683469 7.81478C1.15605 7.09418 1.84049 6.53568 2.64375 6.21518C3.98781 5.62579 5.86466 5.52231 7.29928 5.35884V5.04389C7.37499 4.43251 7.27011 3.81243 6.99742 3.25923C6.83493 3.04908 6.62375 2.88104 6.38185 2.76941C6.13996 2.65779 5.8745 2.60587 5.60808 2.6181C5.15256 2.58275 4.69961 2.71286 4.33333 2.98427C3.96706 3.25567 3.71236 3.64993 3.61651 4.09382C3.60385 4.20486 3.55518 4.3088 3.47786 4.38996C3.40054 4.47112 3.29876 4.52509 3.18786 4.54374L0.784253 4.29178C0.725182 4.28344 0.668443 4.26321 0.617497 4.23236C0.566551 4.2015 0.522466 4.16065 0.487934 4.1123C0.453401 4.06396 0.429144 4.00912 0.416642 3.95115C0.404141 3.89318 0.403658 3.83329 0.415222 3.77513C0.970656 0.877671 3.59916 0.00408351 5.95296 0.00408351C7.30436 -0.0473409 8.62893 0.388352 9.68252 1.23085C10.89 2.3504 10.7723 3.84412 10.7723 5.46981V9.30985C10.7828 10.1604 11.1162 10.9757 11.7058 11.5924C11.7486 11.6359 11.7825 11.6873 11.8053 11.7438C11.8282 11.8003 11.8396 11.8607 11.839 11.9215C11.8384 11.9824 11.8257 12.0425 11.8017 12.0985C11.7776 12.1545 11.7427 12.2052 11.699 12.2478C11.1941 12.667 10.2961 13.4476 9.801 13.884L9.79421 13.8772" fill="#1A1A2E"/>
</g>
</svg>
