<svg width="120" height="26" viewBox="0 0 120 26" fill="none" xmlns="http://www.w3.org/2000/svg">
<g opacity="0.45">
<path d="M35.1999 13.119C34.0997 12.6463 33.2087 12.1946 33.2087 11.4871C33.2087 10.9924 33.7705 10.4945 34.7345 10.4945C35.5533 10.5062 36.3603 10.6919 37.102 11.0395C37.2255 11.1054 37.3699 11.1199 37.5041 11.0799C37.6382 11.0399 37.7512 10.9487 37.8187 10.8259L38.1771 10.0461C38.2397 9.90253 38.2507 9.74169 38.2083 9.59092C38.1659 9.44015 38.0726 9.30876 37.9444 9.21913C36.9664 8.65117 35.8508 8.365 34.7207 8.3922C32.0452 8.3922 30.9449 10.0168 30.9449 11.4172C30.9449 13.2222 32.3525 14.1572 34.0397 14.9378C35.5656 15.6202 36.4072 16.1181 36.4072 16.8508C36.4072 17.486 35.8915 17.9336 34.9745 17.9336C33.999 17.9324 33.0452 17.6449 32.2309 17.1067C32.1747 17.0686 32.1116 17.042 32.0452 17.0284C31.9787 17.0148 31.9102 17.0146 31.8437 17.0277C31.7771 17.0407 31.7138 17.0668 31.6574 17.1045C31.601 17.1422 31.5526 17.1907 31.5149 17.2472L31.0244 18.287C30.9794 18.388 30.9736 18.5022 31.008 18.6074C31.0425 18.7125 31.1148 18.801 31.2109 18.8556C32.2775 19.5969 33.545 19.9938 34.8432 19.9928C37.3039 19.9928 38.7835 18.4803 38.7835 16.7436C38.7422 14.7469 37.2163 13.9923 35.1999 13.119Z" fill="#1A1A2E"/>
<path d="M20.5889 23.1592C19.1803 22.2451 17.6596 21.5172 16.0648 20.9936C13.8441 20.2636 11.7491 19.1951 9.85341 17.8256C8.89625 17.1048 8.12592 16.1641 7.60726 15.0829C7.0886 14.0016 6.83678 12.8113 6.87299 11.6122C6.85039 10.5137 7.08714 9.42548 7.56392 8.43608C8.04071 7.44668 8.74406 6.58412 9.61666 5.9187C11.6331 4.31194 14.6816 3.48176 18.4322 3.48176C19.4192 3.48116 20.4053 3.54384 21.3843 3.6694C21.4247 3.67407 21.4656 3.66478 21.5001 3.64307C21.5346 3.62137 21.5606 3.58854 21.574 3.54999C21.5955 3.51549 21.6027 3.47392 21.5941 3.43416C21.5855 3.3944 21.5617 3.35959 21.5278 3.33717C20.272 2.19572 18.803 1.31474 17.2056 0.745046C15.6082 0.175355 13.9141 -0.0717616 12.2209 0.0179566C10.5277 0.107675 8.86894 0.532451 7.34044 1.26777C5.81194 2.0031 4.44391 3.03441 3.3153 4.3022C1.0246 6.86913 -0.160735 10.2391 0.0175561 13.6777C0.195847 17.1164 1.72331 20.3451 4.26715 22.6605C6.62682 24.805 9.6974 25.9951 12.8833 25.9999C15.648 26.0124 18.3406 25.1171 20.5492 23.4508C20.5903 23.4134 20.6158 23.3617 20.6205 23.3062C20.629 23.2812 20.6305 23.2542 20.6249 23.2284C20.6193 23.2025 20.6069 23.1786 20.5889 23.1592Z" fill="#1A1A2E"/>
<path d="M25.7325 11.8185C25.7323 11.794 25.7256 11.7701 25.713 11.7491C25.7005 11.7281 25.6826 11.7108 25.6611 11.6991C22.9637 9.45305 20.7859 8.53108 18.1387 8.53108C17.0003 8.45646 15.8686 8.75561 14.9151 9.3832C14.6101 9.60931 14.3635 9.90517 14.1958 10.2461C14.0282 10.5871 13.9442 10.9633 13.9511 11.3433C13.9511 13.5634 16.6737 14.5926 19.7887 15.7842C21.4489 16.363 23.0632 17.0666 24.6177 17.8889C24.6456 17.906 24.6783 17.9137 24.7109 17.9109C24.7237 17.9123 24.7366 17.9111 24.7489 17.9073C24.7611 17.9036 24.7725 17.8973 24.7822 17.8889C24.8094 17.8787 24.834 17.8628 24.8545 17.8422C24.8749 17.8216 24.8906 17.7968 24.9006 17.7695C25.4877 16.2558 25.7901 14.6463 25.7925 13.0224C25.7957 12.6202 25.7757 12.2183 25.7325 11.8185Z" fill="#1A1A2E"/>
<path d="M99.878 19.9205C100.028 19.9095 100.168 19.8432 100.272 19.7345C100.376 19.6257 100.436 19.4821 100.441 19.3316V13.6852C100.441 10.7966 100.082 8.55872 96.407 8.55872C95.0596 8.54996 93.7207 8.77336 92.4489 9.21913C92.3133 9.25119 92.1959 9.3358 92.1224 9.45442C92.049 9.57305 92.0256 9.71599 92.0572 9.85192C92.0621 9.86979 92.0662 9.88767 92.0727 9.90554L92.3053 10.8478C92.3121 10.9179 92.3327 10.986 92.3657 11.0481C92.3988 11.1103 92.4438 11.1653 92.498 11.21C92.5523 11.2547 92.6149 11.2883 92.6821 11.3088C92.7494 11.3293 92.8199 11.3364 92.8899 11.3295C92.9093 11.3295 92.928 11.3246 92.9475 11.3206C93.9934 10.998 95.0774 10.8159 96.1711 10.7788C97.6256 10.7788 98.0692 11.6057 98.0229 13.4472C97.2688 13.2233 96.4881 13.1017 95.7017 13.0857C92.7504 13.0857 91.1062 14.6925 91.1062 16.8224C91.1062 19.2341 92.6321 20.0716 94.788 20.0716C96.5465 20.0716 98.3699 20.0464 99.1264 19.9993L99.878 19.9205ZM97.98 17.8662C97.6216 18.4348 96.386 18.2927 95.3044 18.2667C94.1085 18.2447 93.5134 17.8191 93.5134 16.7793C93.5134 15.5739 94.5415 14.8663 95.8809 14.8663C96.5961 14.8544 97.3061 14.9907 97.9662 15.2668V17.8662H97.9767H97.98Z" fill="#1A1A2E"/>
<path d="M118.68 8.44011C119.027 8.43914 119.36 8.30008 119.605 8.05346C119.85 7.80684 119.988 7.47283 119.987 7.12478C119.987 6.77673 119.849 6.44311 119.603 6.19717C119.357 5.95123 119.024 5.8131 118.676 5.8131C118.329 5.8131 117.996 5.95123 117.75 6.19717C117.504 6.44311 117.366 6.77673 117.365 7.12478C117.365 7.47283 117.502 7.80684 117.747 8.05346C117.993 8.30008 118.325 8.43914 118.673 8.44011H118.68ZM118.68 6.00317C118.905 5.99676 119.127 6.05751 119.317 6.17772C119.508 6.29792 119.658 6.47214 119.75 6.67824C119.841 6.88434 119.869 7.11301 119.831 7.33518C119.792 7.55736 119.688 7.763 119.533 7.92598C119.377 8.08896 119.177 8.20192 118.957 8.25049C118.737 8.29907 118.508 8.28107 118.298 8.19878C118.089 8.11649 117.908 7.97364 117.78 7.78837C117.651 7.60309 117.581 7.38377 117.577 7.15828C117.577 7.15097 117.577 7.14366 117.577 7.13716C117.574 6.99127 117.599 6.84607 117.651 6.70988C117.703 6.5737 117.782 6.44921 117.882 6.34355C117.983 6.2379 118.103 6.15316 118.237 6.09419C118.37 6.03522 118.513 6.00319 118.659 5.99992L118.68 6.00317Z" fill="#1A1A2E"/>
<path d="M118.232 7.80083H118.351C118.363 7.80006 118.375 7.79485 118.383 7.78618C118.392 7.7775 118.397 7.76596 118.398 7.75371V7.28095H118.681L118.913 7.7789C118.913 7.80083 118.939 7.80083 118.96 7.80083H119.096C119.121 7.80083 119.142 7.7789 119.121 7.75371L118.863 7.28095C118.939 7.25402 119.006 7.2057 119.056 7.14176C119.106 7.07782 119.136 7.00094 119.143 6.92028C119.146 6.81349 119.108 6.70962 119.035 6.63116C118.963 6.55271 118.863 6.50599 118.756 6.50113H118.223C118.21 6.5019 118.199 6.50711 118.19 6.51579C118.182 6.52446 118.176 6.536 118.176 6.54824V7.80083C118.211 7.77971 118.21 7.80083 118.232 7.80083ZM118.395 6.64572H118.735C118.797 6.64572 118.857 6.67046 118.901 6.71448C118.945 6.75851 118.969 6.81822 118.969 6.88048C118.969 6.94274 118.945 7.00245 118.901 7.04648C118.857 7.09051 118.797 7.11524 118.735 7.11524H118.406L118.395 6.64572Z" fill="#1A1A2E"/>
<path d="M46.0781 8.43929C44.9172 8.46404 43.7968 8.87144 42.8902 9.59846V4.63442C42.8813 4.5 42.8243 4.37333 42.7295 4.27778C42.6347 4.18223 42.5086 4.12425 42.3745 4.11454H41.0384C40.9026 4.11943 40.7738 4.17587 40.678 4.27241C40.5823 4.36896 40.5267 4.49837 40.5227 4.63442V19.5192C40.5233 19.6564 40.5778 19.7877 40.6742 19.885C40.7707 19.9823 40.9015 20.0376 41.0384 20.0391H42.3494C42.4813 20.0501 42.6122 20.0082 42.7133 19.9226C42.8144 19.837 42.8774 19.7147 42.8886 19.5826C42.8899 19.5612 42.8899 19.5398 42.8886 19.5184V12.3376C43.1854 11.8392 43.6083 11.4281 44.1146 11.146C44.6208 10.8638 45.1925 10.7206 45.7717 10.7308C47.2043 10.7308 47.9746 11.8136 47.9746 13.6186V19.4997C47.9752 19.6369 48.0296 19.7682 48.1261 19.8655C48.2226 19.9628 48.3533 20.0181 48.4902 20.0196H49.8264C49.9621 20.0147 50.091 19.9583 50.1867 19.8617C50.2825 19.7652 50.338 19.6358 50.342 19.4997V13.6836C50.3445 10.6602 49.1948 8.43929 46.0781 8.43929Z" fill="#1A1A2E"/>
<path d="M74.0232 13.8046C73.8797 10.0209 72.3108 8.44337 68.7004 8.44337C67.309 8.46953 65.9282 8.69185 64.5987 9.10378C64.2225 9.26624 63.9427 9.46444 63.9427 9.71707V23.8692C63.9432 24.0064 63.9976 24.1379 64.0941 24.2352C64.1906 24.3325 64.3215 24.3878 64.4584 24.3891H65.5578C65.6239 24.3966 65.6908 24.391 65.7548 24.3726C65.8187 24.3542 65.8784 24.3233 65.9304 24.2817C65.9823 24.2401 66.0256 24.1887 66.0577 24.1303C66.0898 24.0719 66.11 24.0077 66.1173 23.9415C66.119 23.9174 66.119 23.8932 66.1173 23.8692V19.862C67.2658 20.0339 68.4278 20.0978 69.5882 20.0529C72.1421 19.9806 73.8545 18.1139 73.994 14.9484C74.0191 14.477 74.0191 14.0047 73.994 13.5333V13.7933L74.0232 13.8046ZM71.7238 14.9597C71.6768 17.1262 71.0679 18.0538 69.2631 18.1513C68.2682 18.1418 67.2746 18.0778 66.2867 17.9596C66.1932 17.9379 66.1465 17.8908 66.1465 17.8183V10.9948C66.1445 10.9652 66.1543 10.936 66.1737 10.9136C66.1932 10.8913 66.2207 10.8775 66.2502 10.8754H66.2648C67.0624 10.6869 67.8778 10.584 68.6972 10.5684C70.879 10.5684 71.6273 10.9006 71.7205 13.6625V14.9622L71.7238 14.9597Z" fill="#1A1A2E"/>
<path d="M89.8228 8.66676H88.8126C88.5328 8.66676 88.0958 8.66676 87.971 8.999L86.2124 15.4033H86.1662L83.2085 8.69194C83.1674 8.60468 83.1 8.5326 83.0157 8.48594C82.9314 8.43928 82.8346 8.4204 82.739 8.432H82.5768C82.4861 8.43032 82.3967 8.45368 82.3183 8.49953C82.24 8.54538 82.1757 8.61194 82.1326 8.69194L79.1562 15.3781H79.11L77.319 8.999C77.2859 8.89658 77.2195 8.8082 77.1305 8.74799C77.0414 8.68777 76.9348 8.65917 76.8277 8.66676H75.3593C74.9831 8.66676 74.8185 8.95188 74.9831 9.30605L78.2068 19.7759C78.2387 19.8662 78.2996 19.9432 78.3801 19.9949C78.4606 20.0465 78.5559 20.0698 78.6511 20.0611H78.7905C78.8797 20.0707 78.9696 20.0504 79.046 20.0033C79.1225 19.9563 79.1812 19.8852 79.2129 19.8011L82.6117 12.2417H82.6587L86.0332 19.7759C86.0798 19.8586 86.1483 19.9266 86.2312 19.9725C86.3141 20.0184 86.4081 20.0403 86.5027 20.0359H86.5959C86.6972 20.0453 86.799 20.0233 86.8874 19.9729C86.9759 19.9225 87.0467 19.8461 87.0904 19.754L90.2322 9.28411C90.4065 8.95919 90.1957 8.66676 89.8228 8.66676Z" fill="#1A1A2E"/>
<path d="M107.404 8.58065H106.956C106.393 8.58065 105.832 8.60583 105.315 8.62776C104.33 8.67488 103.746 8.74717 103.324 8.79022C103.324 8.79022 103.066 8.81541 102.737 8.86252C102.651 8.86884 102.567 8.89295 102.49 8.93335C102.414 8.97375 102.346 9.02956 102.293 9.09728C102.229 9.16823 102.195 9.26165 102.199 9.35722V19.516C102.2 19.6531 102.254 19.7845 102.351 19.8818C102.447 19.979 102.578 20.0344 102.715 20.0359H103.814C104.262 20.0359 104.588 19.9888 104.588 19.516V12.6349V11.0574C104.588 10.9883 104.684 10.916 104.75 10.8697C105.462 10.6082 106.223 10.5108 106.978 10.5846H107.272C107.586 10.6036 107.895 10.6756 108.185 10.7974C108.244 10.8265 108.308 10.8437 108.373 10.8479C108.439 10.8521 108.504 10.8433 108.566 10.822C108.628 10.8007 108.685 10.7673 108.734 10.7238C108.783 10.6803 108.823 10.6274 108.852 10.5684C108.857 10.5578 108.862 10.5481 108.866 10.5375L109.428 9.59522C109.779 8.86577 108.456 8.58065 107.404 8.58065Z" fill="#1A1A2E"/>
<path d="M114.976 8.44012C114.232 8.44205 113.497 8.59489 112.814 8.88942C112.13 9.18395 111.514 9.61408 111.001 10.1538C110.488 10.6936 110.09 11.3319 109.83 12.0301C109.57 12.7283 109.453 13.4721 109.488 14.2165C109.488 17.3244 111.67 20.0286 115.001 20.0286C116.485 20.0762 117.937 19.5952 119.099 18.6712C119.423 18.3861 119.332 18.1733 119.146 17.9133L118.49 16.8987C118.301 16.6136 118.089 16.6859 117.831 16.8516C117.067 17.465 116.117 17.7975 115.138 17.7939C114.308 17.8087 113.505 17.5031 112.894 16.9406C112.283 16.378 111.912 15.6015 111.856 14.7721H119.458C119.584 14.7684 119.704 14.7181 119.795 14.6308C119.886 14.5434 119.942 14.4254 119.951 14.2993C119.972 14.1117 119.997 13.7307 119.997 13.5195C120.04 12.2149 119.563 10.9469 118.673 9.99436C117.782 9.0418 116.55 8.48273 115.248 8.44012C115.156 8.43796 115.065 8.43796 114.976 8.44012ZM111.95 12.9996C112.022 12.2778 112.37 11.6119 112.92 11.141C113.471 10.6701 114.182 10.4306 114.905 10.4725C115.248 10.4585 115.591 10.5123 115.913 10.631C116.235 10.7496 116.531 10.9307 116.784 11.164C117.036 11.3972 117.24 11.6781 117.384 11.9904C117.528 12.3027 117.61 12.6404 117.623 12.9842C117.623 12.9891 117.623 12.9948 117.623 12.9996H111.95Z" fill="#1A1A2E"/>
<path d="M62.0196 11.8665C61.7901 11.1893 61.4322 10.5629 60.9656 10.0217C60.5156 9.51658 59.9626 9.11409 59.344 8.84141C58.6381 8.55748 57.884 8.41294 57.1233 8.41575C56.361 8.40946 55.6049 8.55412 54.8986 8.84141C54.2833 9.11983 53.7315 9.5215 53.277 10.0217C52.8179 10.5682 52.4608 11.1931 52.223 11.8665C51.7217 13.409 51.7217 15.0711 52.223 16.6136C52.4561 17.2772 52.8139 17.8899 53.277 18.4186C53.7211 18.9302 54.2757 19.3338 54.8986 19.5989C55.604 19.8907 56.36 20.0404 57.1233 20.0391C57.8869 20.0469 58.6443 19.9019 59.3513 19.6127C59.9669 19.3349 60.5189 18.9331 60.9729 18.4324C61.4309 17.9 61.7881 17.2883 62.0269 16.6274C62.5284 15.0849 62.5284 13.4228 62.0269 11.8803L62.0196 11.8665ZM57.0739 18.1521C55.0826 18.1521 54.074 16.4463 54.074 14.3464C54.074 12.2466 55.0802 10.5416 57.0739 10.5416C59.0676 10.5416 60.0737 12.2474 60.0737 14.3464C60.0737 16.4455 59.0676 18.1521 57.0739 18.1521Z" fill="#1A1A2E"/>
</g>
</svg>
