<svg width="82" height="16" viewBox="0 0 82 16" fill="none" xmlns="http://www.w3.org/2000/svg">
<g opacity="0.45">
<path d="M30.0985 0.515884H33.2064L38.4907 9.76717L43.775 0.515884H46.8157V15.7161H44.2802V4.067L39.6461 12.133H37.2681L32.634 4.067V15.7161H30.0985V0.515884Z" fill="#1A1A2E"/>
<path d="M54.9939 15.988C53.9139 16.0097 52.8474 15.7499 51.9048 15.2354C51.0246 14.7422 50.3038 14.0182 49.8244 13.1455C49.3139 12.203 49.0571 11.1495 49.0782 10.0838C49.0557 9.00813 49.3065 7.94372 49.808 6.98542C50.2699 6.11363 50.9711 5.38424 51.8335 4.87875C52.7358 4.36184 53.7672 4.0986 54.8134 4.11815C55.812 4.07821 56.7994 4.33503 57.645 4.85463C58.4905 5.37423 59.1543 6.13209 59.5484 7.02782C60.0026 8.04732 60.2245 9.15086 60.1986 10.2622V10.9356H51.6006C51.7047 11.7754 52.1096 12.5524 52.7437 13.1295C53.3928 13.6738 54.2285 13.9594 55.0841 13.9293C55.7504 13.9445 56.4134 13.8337 57.0365 13.603C57.6074 13.3696 58.1286 13.0344 58.5733 12.6144L59.9198 14.2092C58.5744 15.3995 56.8096 16.0362 54.9939 15.988ZM56.8455 6.97341C56.5706 6.70827 56.2423 6.50149 55.8815 6.36604C55.5206 6.2306 55.1349 6.16945 54.7487 6.18643C54.3613 6.1781 53.9761 6.24564 53.6159 6.38508C53.2558 6.52452 52.9279 6.73301 52.6518 6.99821C52.0614 7.58387 51.6848 8.34268 51.5801 9.15768H57.7516C57.7267 8.34926 57.4045 7.57652 56.8439 6.98061" fill="#1A1A2E"/>
<path d="M63.2632 6.40082H60.9211V4.39173H63.255V1.07014H65.7003V4.39173H69.2461V6.40082H65.7085V11.4923C65.6505 12.1281 65.8081 12.7648 66.1571 13.3047C66.3545 13.5026 66.5953 13.6543 66.8615 13.7484C67.1276 13.8426 67.4121 13.8769 67.6938 13.8486C67.9676 13.8509 68.2414 13.8381 68.5138 13.8102C68.739 13.7846 68.9851 13.7502 69.2519 13.707V15.6937C68.9446 15.7823 68.6314 15.8502 68.3146 15.8969C67.952 15.9482 67.5862 15.9733 67.2198 15.972C64.5788 15.972 63.2585 14.5753 63.2591 11.7819L63.2632 6.40082Z" fill="#1A1A2E"/>
<path d="M81.9992 15.7096H79.5982V14.1244C79.1831 14.7088 78.6235 15.1814 77.9712 15.4985C77.2724 15.8282 76.5037 15.9926 75.7276 15.9784C74.7556 15.9954 73.8006 15.7292 72.9846 15.2138C72.1727 14.6902 71.521 13.9623 71.0985 13.1071C70.6282 12.151 70.394 11.1009 70.4146 10.0407C70.397 8.98077 70.6379 7.93194 71.1173 6.98063C71.5503 6.12341 72.216 5.39837 73.042 4.88435C73.8876 4.37002 74.8681 4.10583 75.8645 4.12375C76.6081 4.1119 77.3447 4.26591 78.018 4.57403C78.6443 4.86804 79.1872 5.30745 79.599 5.85371V4.39888H82L81.9992 15.7096ZM79.5539 8.3515C79.3114 7.73072 78.8788 7.19786 78.3148 6.82547C77.7359 6.44829 77.0526 6.25294 76.3566 6.26562C75.8887 6.2453 75.422 6.3257 74.9896 6.50111C74.5572 6.67652 74.1697 6.94263 73.8546 7.28055C73.1998 8.05288 72.8674 9.03756 72.9239 10.0383C72.8677 11.0367 73.1867 12.0208 73.821 12.8064C74.1213 13.1446 74.4966 13.4117 74.9184 13.5875C75.3402 13.7634 75.7975 13.8433 76.2557 13.8213C76.9714 13.8329 77.6744 13.6367 78.2754 13.2575C78.8548 12.8945 79.3024 12.3628 79.5547 11.7378L79.5539 8.3515Z" fill="#1A1A2E"/>
<mask id="mask0_40_886" style="mask-type:luminance" maskUnits="userSpaceOnUse" x="0" y="0" width="25" height="17">
<path d="M2.69136 10.5345C2.69136 6.62026 4.70864 2.62045 7.1138 2.62045C8.41601 2.62045 9.5042 3.34906 11.1713 5.66448C9.58784 8.0143 8.62922 9.48753 8.62922 9.48753C6.52173 12.6867 5.7919 13.4018 4.61762 13.4018C3.40971 13.4018 2.69299 12.3748 2.69299 10.5449M16.5876 9.08365L15.1198 6.72982C14.7256 6.10864 14.3468 5.53707 13.9832 5.01506C15.2953 3.05315 16.3802 2.075 17.6734 2.075C20.3516 2.075 22.4968 5.89003 22.4968 10.5769C22.4968 12.3628 21.8924 13.3994 20.6386 13.3994C19.4372 13.3994 18.8649 12.6323 16.5827 9.08043M12.7704 3.38427C10.7867 0.948879 9.13025 0.00991821 7.14413 0.00991821C3.09891 0.00991821 0 5.10544 0 10.4969C0 13.8712 1.67779 16.0003 4.51018 16.0003C6.54386 16.0003 8.006 15.0733 10.6063 10.6736L12.4366 7.54482C12.698 7.95059 12.9735 8.3902 13.2632 8.86368L14.4818 10.848C16.8599 14.7038 18.181 15.9979 20.5779 15.9979C23.3316 15.9979 24.8618 13.8385 24.8618 10.3993C24.8618 4.75432 21.6915 0.0123102 17.8415 0.0123102C15.8029 0.0123102 14.2095 1.49753 12.7671 3.38666" fill="white"/>
</mask>
<g mask="url(#mask0_40_886)">
<path d="M24.9292 -0.0543671H-0.0325928V16.1144H24.9292V-0.0543671Z" fill="#1A1A2E"/>
</g>
<mask id="mask1_40_886" style="mask-type:luminance" maskUnits="userSpaceOnUse" x="7" y="0" width="9" height="10">
<path d="M7.11133 2.61614C8.88916 2.61614 10.2676 3.97179 13.2657 8.85457L13.4477 9.15291L15.1255 6.71831C11.9651 1.74516 9.86006 0 7.14411 0L7.11133 2.61614Z" fill="white"/>
</mask>
<g mask="url(#mask1_40_886)">
<path d="M2.55029 3.37038L12.1771 -3.73895L19.6882 5.78496L10.0614 12.8943L2.55029 3.37038Z" fill="#1A1A2E"/>
</g>
</g>
</svg>
